<?xml version="1.0" encoding="UTF-8" standalone="no"?>
<!DOCTYPE svg PUBLIC "-//W3C//DTD SVG 1.1//EN" "http://www.w3.org/Graphics/SVG/1.1/DTD/svg11.dtd">
<svg xmlns="http://www.w3.org/2000/svg" version="1.1" xmlns:xlink="http://www.w3.org/1999/xlink" width="650px" height="3030.0px">
<style>text {font-family:PingFangSC-Regular,Microsoft YaHei,'Hiragino Sans GB',Helvetica;font-size:14px;fill:#282828;}</style>
	<text x="0" y="34">神帖趟羞即共劫花衡坟帐阴绝砍胀表恶充戏旷挥缘触近蛋架谈弟盈油腿浇灶没哥纠交霞菜往茫偷</text>
	<text x="0" y="75">拌了傻丝射毕舟眯狮济筝又否崇卫想什碗购作瓦勿官月擦夺锄酸橘责疑古衰恼窑屯抬恒腐至经兵</text>
	<text x="0" y="107">搏角精订秤金用夜日陆敞待蒜蜜醋朝报候屿尸断坚叫颂滨蝴娱轧薄审正抽默荐俗耗本退洽苍喘仪</text>
	<text x="0" y="153">特喷箩稀竟峰案纺右走伍三盼赞力味雄政慰晓兴调重稿馋忍暖敏庙旬玻像吧芦里昂抄践脆驴火并</text>
	<text x="0" y="198">掏仰抚萄疤蔑资研瘦笛帜挨肤令昆渔吩虹省种辞违买探乞畜呆辣们自战搁都乐秃姥颜悟贫键龄雁</text>
	<text x="0" y="246">伤挪桌撞浙页蝶华评顿轮况归袭裹围线差努脱期中航蕉阳集宗拿壁赌暗帘闸症系葡骆蛾维屑晨该</text>
	<text x="0" y="294">疏采赏程尝蚁扇目蓝厨蹦驳奇柱屈妈验夏耕疆居肩猾车货贱矮单柜劲虫勒搂盯尖睡松画陪雹殖铜</text>
	<text x="0" y="341">嚷轰塞模恐罢哄跑粗乓怠徐胸启牲悦笋穗剖再辅夫绳裤爬意律己头趴掌蔽带看域注巾弹洲营帝旦</text>
	<text x="0" y="385">住情卡编烫词沿液扔侦香早块度锦鹊逗亲完缝背以悼名列迁威赔解督却称妥寸侮役甘舌膊驱搬亚</text>
	<text x="0" y="431">忧茶雕邻微斩御击墓湾辜么掘辉做杆极刀钱勺绣豪促棵险莫炼向似蠢声凤许挠倚无群乏捕户烘写</text>
	<text x="0" y="466">肠杯猎酒某服周贩蜡久套渗协罐券串肥窄嗽鞭祥扛盗观佛佣廊傲播捐黄朵含革筹流芳纲尚路拴揉</text>
	<text x="0" y="507">铸雨详钥涉殿鸦骗贵羡接院医筒呈激字姑绢垄洞毒鬼躁熔塑膝魄市谷仓封冤汤阔呼远欢询顺垫跃</text>
	<text x="0" y="545">练只吵撑顾萍猪匙与宿脏铺艺语迈狐犯怜轻永粮览障翻盛款搅混滋敬卖辈母轿泊胜弓睁蓄降距临</text>
	<text x="0" y="588">唉诗炒私善隙笼息皇摆结卸男孕惕就咐寻分锁疲美班售亡议献稻吐返还艳明葱抵踩眨旧密迟发匹</text>
	<text x="0" y="635">秀吗控专卜钢寺赶所具朗红话欺积煮蹄袄穴矿棚咽故肯炭竭辽签腔怒末鹰氏逆等标鉴慎膀余岸去</text>
	<text x="0" y="672">达腾烤毛扩怕鲜慌膏宏休缺乳植碑湖醒折毁罪健仇禾蛮准码宙瓣岛披船冒栏米才搜困佩算裕横珠</text>
	<text x="0" y="712">九考狼叔互俩盐锯伶繁弊童顷宣戚燥绒鸽楚婆回武告愉记雾答盟药欲年潮渐宜礼诊丑务求格底巡</text>
	<text x="0" y="746">秩澡杰变留宵瓶敲狗跪卵问间朋溪圣邪高呢侧但层烟化龙枣插骡辛黎坏脂橡的剂袖辨撇菠破沫全</text>
	<text x="0" y="785">贴兄怎堪谁海权惜咸虎庸厘诉续态坝厅弯粱绕猴思平卷盲劣滔轨其来宰人链裳如姐卧总妇涝艘刺</text>
	<text x="0" y="825">盾忽枝愚驼于撕狠哨病壤闭响灯志史号荣锅绘怖应第负领乙冲泻贤介冬损乌裂歉她狂荷蚊阻站糠</text>
	<text x="0" y="868">章方捞沉唐录夕晕合欧茧同梯七惊凭埋炸援淋腰雀终宝足旨四盒胞运醉浩价非级逃获扎渣茎刃翼</text>
	<text x="0" y="905">窝牛虾较猫娘点黑豆怀季培指命戒砌渠脚筐个爆幻汁马图沟妹筋粥陶谣板县讽津躲星栗尽存霉株</text>
	<text x="0" y="945">穿惠俊掩惯饲型缴熊涂贪暴拳衬补学乘朽臂丰岭呜别芒佳镜辰状耀供漫秘多灵泼删而心咱室趋异</text>
	<text x="0" y="979">闻菌和上版叠鹿嫩梦引歌件饿酷浸眉邮婚袜养君扒际静握他统机库栋遭挑均水地寿剩汽圈择饭怨</text>
	<text x="0" y="1011">泽例鹅导喝片宋腹幸克照唤填缸哗伏森尘杀叉换圾傍愁岗纯荒贝拜粪袍疗撤逝挤昌压奉央需匠摄</text>
	<text x="0" y="1045">糟韵万稍铲剑箭仍榆滚咬燕斑见晒球篇序扣独视林偿敌贡糕蹲桑兰誉挖支奏灌舒硬阵奸丛法竞速</text>
	<text x="0" y="1085">女操纪尿谱言食生懒原增斯现丹读今牌扰血哭荡妨沾南虚升析贼露魂瑞者诞我岔包循遗矛刊托董</text>
	<text x="0" y="1123">愧塌刘岩智符帮漂电源哪忠垦榨泰保诸此垂患耳抱旋散尺恨泛团吴坛鄙关朱朴工闯参侍睬脊稠迅</text>
	<text x="0" y="1168">锻姜因刻谎般纵连雪选宪悄倘绵桂使着玩始然齿最请既迎匆堡鱼虏骨饮飘率艰碌护洗锐滑泪手捷</text>
	<text x="0" y="1201">扯师老歪秆飞滴尾布博舅靠浮冰镇校炉岁映衫押亿街拐侵捎脾浆奋犹勇镰抗浅望夸挽沃举尼失被</text>
	<text x="0" y="1246">附吸叼赤垃肉拾制持痒忘裁急苗慕爽哑颠客竹椅晴也旁催绍途梨宽抖钉当白收拼垒泄拨那棒絮柳</text>
	<text x="0" y="1282">虽防凯不剪炎绑窜园篮每泳冻遇勤安份随瞒助游梢开畏裙索企蜻铃巩忆旅次逢停瞎后国膛笨体伙</text>
	<text x="0" y="1317">给饥父菊切旱勾傅小瓜叶牙茄巷挺郎仅皮找若崭刚物雅耐棉慢翁璃值你它暂快刮稳承狭芬劳煌踏</text>
	<text x="0" y="1349">墨冈享习烈呀饰杜郑节更袋兽愈狸屋村数爹碧质丢槽肆功揭缎阁苦据低仗端毙肃筛啦左舍哈氧入</text>
	<text x="0" y="1395">颤界认鸣兼肝酬妖凝锣邀杨扬赢办鼻将驶张割批主放农堤疾您让优趁定常脑景加渡枪扭拆票姿惩</text>
	<text x="0" y="1436">锤峡设亏巨恢巴产未椒半膨爸事境壶栽藏崖满素会讲俱吼略焰网盘军愤汪悔处族翠比式离代费店</text>
	<text x="0" y="1467">育魔悲钳蚀十剃赖泉叙跟隆教遣阿谜双先腥条外讯膜谢挂府波肌绪倾驰输继绸叛染沈察李茂东贸</text>
	<text x="0" y="1511">打跨立根凉祸馒除州悬基些昨救建萝概奔乔驻钟咏孟毯糖迹位污糊仿展午觉匀盆囊慈刷削软晃歼</text>
	<text x="0" y="1546">宴丽娇担惨材环炊深骤钓兆书委娃查普掉杠稼熟纹鸡干薯冶在尊咳仆禽徒纽桃壮长严益守昏造信</text>
	<text x="0" y="1581">耽棕誓牧厉臭孩彻振福铁芹活仙免涌天浊饱番掠通鸭云王皂宁身利址突恰饶出罗鸟添预隶坑雷摔</text>
	<text x="0" y="1613">遍械截宾齐奴笑浓烂亭八偶河钞招送谅恭民遮派施滩罚驾挡竖气床脸敢慨斗夹谨惹郊扮固纳子摧</text>
	<text x="0" y="1654">果容场屡蛛档胡亦凡胃侨逐时辆肾授搭隔科叨仔伴樱执框抓范榴踢慧奖猛细检已籍桐僚题钻释奥</text>
	<text x="0" y="1685">监煤翅听挣唇扑缓知管锋寨转旗进商闷项惭危有组构残耍伪伸痕括测零策前儿麦陡下隐判唯确野</text>
	<text x="0" y="1732">梅冷投洁羊奶替忙顶股公迫衔乒甜础楼虑征贿树昼烦讨占业好烧坊摇典初动口曾示碎反淡段少柏</text>
	<text x="0" y="1776">过首偏吉淹及棍淘貌牵爱涨馅约琴山装载摩俘燃复这羽适匪秒课宇震绞坡风骄聚织堵粒川司弃嚼</text>
	<text x="0" y="1826">误珍穷龟阶胁摘扶赛矩紧梁二孔妙述债池强田额拍凑墙几捧拘限瞧妻付访超移吞舰沙西能宅秧斥</text>
	<text x="0" y="1863">胶狱抛掀对创厕苹携蒸辱币取害揪坐筑聪诱弱喊由希晌谊辟喇肢踪趣纷犬猜赠难避倦丧牢陈盏炮</text>
	<text x="0" y="1900">绿愿一畅仁译槐弄砖屠舱联迷浴友攻倡摸衣光嫌鲁葛清广祝井叹或门哀殃舞赚很撒富喉束浑坦聋</text>
	<text x="0" y="1943">究柔帆杏拉社寄磨玉死嘉苏帅枯谦暑显忌窗是狡销恩从堂箱疯廉冠斤租蔬著皱姨寇家榜良丸术英</text>
	<text x="0" y="1993">抢扫劈性理青摊器识拦诚蝇幅恳热则五越透止登影京孙陷草义传剧道乖康庄配形桨借拥闪胆拖唱</text>
	<text x="0" y="2035">惑温拒溉径假嫁沸炕毫哲届吓莲逼僻洪短土历粉北消滥木净酿麻按搞孤眠欣样蒙胖叮丁伞陕胳倍</text>
	<text x="0" y="2078">旺岂两骂痛柄德行眼嫂凶劝饺帽竿惧蓬递漠螺职懂申睛厦闹洋牺争丈兔碍丘技汇柴世姓房边灭艇</text>
	<text x="0" y="2109">须遵碰禁煎腊怪臣吹晋大潜财春描妄吊葬相落败之试纸台简伯盖钩鞠庭宫跳成证效剥甲桥焦蜂络</text>
	<text x="0" y="2146">修要捆婶税肚嘴彼疼梳肺滤依各垮晚皆绩起累说刑塘融躬欠灰丙枕何锹区党酱文真席漆扁嘱攀品</text>
	<text x="0" y="2180">易浪桶熄太鞋阀洒乃辩贯捏捡杂拔提歇蛙溜罩锡论士堆骑尤料得鼓饼势闲恋缩核警湿拣纤追银脉</text>
	<text x="0" y="2221">霸疮孝芽嗓象喂量石僵队巧实粘部暮铅估庆蹈册倒挎葵灾爷笔储灿鼠废空辫殊塔针拢蜘亩芝渴厚</text>
	<text x="0" y="2265">寒属贞座百纱甚可颗受顽赵悠步秋且划磁吃疫到汗涛计整烛念喜副霜躺陵错召紫抹幼遥捉晶吨悉</text>
	<text x="0" y="2309">颈犁斜侄港勉致为备凳啊决诵弦脖改毅伟色窃惰亮众斧江六伐新内蚕任爪千姻泥阅馆直甩俭赴萌</text>
	<text x="0" y="2346">戴乎跌排允减训泡便漏蚂够棋规彩句励餐柿蛇必予茅面曲元谋乡壳缠俯局音城汉演厂覆润延员幕</text>
	<text x="0" y="2383">厌啄圆另逮祖蜓痰耻感类薪贷贺治把推置锈乱肿</text>
</svg>